<?xml version="1.0" encoding="iso-8859-1"?>
<!-- Generator: Adobe Illustrator 19.0.0, SVG Export Plug-In . SVG Version: 6.00 Build 0)  -->
<svg xmlns="http://www.w3.org/2000/svg" xmlns:xlink="http://www.w3.org/1999/xlink" version="1.1" id="Layer_1" x="0px" y="0px" viewBox="0 0 512 512" style="enable-background:new 0 0 512 512;" xml:space="preserve">
<path style="fill:#FF7945;" d="M315.707,124.347l-119.172-0.135c-37.624,20.92-63.083,61.076-63.083,107.179v139.073  c0,29.416,21.49,54.04,49.543,58.991l143.379,0.403c29.329-3.829,52.173-29.065,52.173-59.394V231.39  C378.547,185.388,353.198,145.305,315.707,124.347z"/>
<path style="fill:#1F1A78;" d="M422.121,89.776H89.879c-4.513,0-8.17-3.657-8.17-8.17s3.657-8.17,8.17-8.17h332.242  c4.513,0,8.17,3.657,8.17,8.17S426.634,89.776,422.121,89.776z"/>
<path style="fill:#DB412C;" d="M366.225,59.223h-40.274C316.484,29.614,288.751,8.17,256,8.17s-60.484,21.444-69.951,51.054h-40.274  c-6.805,0-12.322,5.517-12.322,12.323v20.122c0,6.805,5.517,12.323,12.322,12.323h40.274c9.468,29.61,37.201,51.054,69.951,51.054  s60.484-21.444,69.951-51.054h40.274c6.805,0,12.322-5.517,12.322-12.323V71.546C378.547,64.741,373.03,59.223,366.225,59.223z"/>
<path style="fill:#1F1A78;" d="M215.676,345.128v119.694c0,21.544,17.465,39.009,39.009,39.009s39.009-17.465,39.009-39.009V345.128  H215.676z"/>
<circle style="fill:#FFD83D;" cx="256" cy="81.607" r="40.756"/>
<path style="fill:#DB412C;" d="M254.685,264.419c-33.576,0-60.796,27.22-60.796,60.796v30.807h121.592v-30.807  C315.481,291.637,288.261,264.419,254.685,264.419z"/>
<path d="M326.364,438.029c-4.042,0-7.554-2.998-8.091-7.114c-0.585-4.473,2.569-8.574,7.044-9.158  c25.688-3.355,45.059-25.405,45.059-51.293V231.39c0-41.403-22.476-79.687-58.657-99.912c-3.939-2.202-5.347-7.18-3.146-11.118  c2.203-3.94,7.18-5.347,11.118-3.146c41.342,23.111,67.024,66.86,67.024,114.176v139.073c0,34.065-25.487,63.082-59.285,67.495  C327.073,438.005,326.717,438.029,326.364,438.029z"/>
<path d="M183.005,437.626c-0.472,0-0.949-0.04-1.43-0.125c-32.618-5.756-56.293-33.95-56.293-67.036V231.39  c0-47.44,25.781-91.244,67.282-114.319c3.943-2.192,8.918-0.773,11.11,3.17c2.193,3.943,0.773,8.919-3.17,11.11  c-36.319,20.195-58.882,58.528-58.882,100.038v139.073c0,25.142,17.996,46.568,42.792,50.945c4.443,0.784,7.41,5.022,6.625,9.465  C190.343,434.837,186.895,437.626,183.005,437.626z"/>
<path d="M254.685,512c-26.015,0-47.179-21.164-47.179-47.179V356.022c0-4.513,3.657-8.17,8.17-8.17s8.17,3.657,8.17,8.17v108.799  c0,17.004,13.834,30.839,30.839,30.839c17.004,0,30.839-13.834,30.839-30.839v-76.118c0-4.513,3.657-8.17,8.17-8.17  c4.513,0,8.17,3.657,8.17,8.17v76.118C301.864,490.836,280.7,512,254.685,512z"/>
<path d="M315.481,364.192H193.888c-4.513,0-8.17-3.657-8.17-8.17v-30.807c0-38.029,30.938-68.967,68.967-68.967  c38.027,0,68.966,30.938,68.966,68.967v30.807C323.652,360.535,319.993,364.192,315.481,364.192z M202.058,347.852H307.31v-22.637  c0-29.018-23.608-52.627-52.626-52.627s-52.627,23.609-52.627,52.627v22.637H202.058z"/>
<path d="M256,130.533c-26.979,0-48.926-21.948-48.926-48.926S229.021,32.681,256,32.681c26.979,0,48.926,21.947,48.926,48.925  C304.926,108.585,282.979,130.533,256,130.533z M256,49.021c-17.968,0-32.586,14.618-32.586,32.585  c0,17.968,14.618,32.586,32.586,32.586s32.586-14.618,32.586-32.586C288.586,63.639,273.968,49.021,256,49.021z"/>
<path d="M272.333,161.376c-3.73,0-7.098-2.57-7.96-6.361c-1-4.4,1.755-8.778,6.155-9.779c22.387-5.091,40.642-21.848,47.64-43.734  c1.082-3.385,4.229-5.682,7.782-5.682h40.274c2.29,0,4.153-1.863,4.153-4.153V71.546c0-2.29-1.863-4.153-4.153-4.153H325.95  c-3.553,0-6.7-2.296-7.782-5.682C309.491,34.573,284.508,16.34,256,16.34s-53.492,18.233-62.169,45.371  c-1.082,3.385-4.229,5.682-7.782,5.682h-40.274c-2.29,0-4.152,1.863-4.152,4.153v20.123c0,2.29,1.863,4.153,4.152,4.153h40.274  c3.553,0,6.7,2.296,7.782,5.682c6.999,21.886,25.254,38.644,47.64,43.734c4.4,1.001,7.155,5.379,6.155,9.779  c-1,4.399-5.371,7.154-9.779,6.155c-26.028-5.919-47.59-24.444-57.527-49.009h-34.546c-11.3,0-20.493-9.192-20.493-20.493V71.546  c0-11.3,9.192-20.493,20.493-20.493h34.538C192.687,20.278,222.384,0,256,0s63.313,20.278,75.687,51.053h34.538  c11.3,0,20.493,9.192,20.493,20.493v20.123c0,11.3-9.192,20.493-20.493,20.493h-34.546c-9.936,24.566-31.498,43.092-57.527,49.009  C273.543,161.308,272.933,161.376,272.333,161.376z"/>
<path d="M133.453,89.776H89.879c-4.513,0-8.17-3.657-8.17-8.17s3.657-8.17,8.17-8.17h43.574c4.513,0,8.17,3.657,8.17,8.17  S137.965,89.776,133.453,89.776z"/>
<path d="M422.121,89.776h-43.574c-4.513,0-8.17-3.657-8.17-8.17s3.657-8.17,8.17-8.17h43.574c4.513,0,8.17,3.657,8.17,8.17  S426.634,89.776,422.121,89.776z"/>
<path d="M274.439,241.943h-39.507c-4.513,0-8.17-3.657-8.17-8.17s3.657-8.17,8.17-8.17h39.507c4.513,0,8.17,3.657,8.17,8.17  C282.609,238.285,278.951,241.943,274.439,241.943z"/>
<g>
</g>
<g>
</g>
<g>
</g>
<g>
</g>
<g>
</g>
<g>
</g>
<g>
</g>
<g>
</g>
<g>
</g>
<g>
</g>
<g>
</g>
<g>
</g>
<g>
</g>
<g>
</g>
<g>
</g>
</svg>
