<?xml version="1.0" encoding="UTF-8"?><svg id="_イヤー_2" xmlns="http://www.w3.org/2000/svg" viewBox="0 0 409.22 409.22"><defs><style>.cls-1,.cls-2{fill:#fff;}.cls-2{stroke:#040000;stroke-width:2px;}.cls-2,.cls-3{stroke-miterlimit:10;}.cls-4{fill:#040000;}.cls-3{fill:none;stroke:#fff;stroke-width:12px;}</style></defs><g id="logo"><g><g><circle class="cls-4" cx="204.61" cy="204.61" r="198.61"/><circle class="cls-3" cx="204.61" cy="204.61" r="198.61"/></g><g><path class="cls-1" d="M117.21,330.56l-.57,.77-4.21-2.53,.63-.85c1.37-1.85,1.31-3.21-.11-4.26-1.19-.89-2.52-.86-3.67,.68l-.43,.58c-1.11,1.5-1.26,3.3-.41,7.7,1.13,6.03,.73,9.14-1.59,12.25l-.97,1.31c-2.94,3.96-6.99,4.18-10.72,1.41-3.77-2.8-4.68-6.88-1.73-10.84l1.31-1.77,4.21,2.53-1.37,1.85c-1.34,1.81-1.15,3.32,.31,4.41,1.23,.92,2.72,1,4.15-.92l.63-.85c1.26-1.69,1.4-3.49,.55-7.89-1.13-6.03-.73-9.14,1.44-12.06l.49-.65c2.94-3.96,6.79-4.32,10.56-1.52,3.77,2.8,4.45,6.71,1.5,10.67Z"/><path class="cls-1" d="M112.93,358.7l16.36-29.28,4.43,2.48-16.36,29.28-4.43-2.48Z"/><path class="cls-1" d="M142.22,372.31l1.68-23.15-.09-.03-7.9,20.78-4.48-1.7,11.92-31.35,5.28,2.01-1.5,20.8,.09,.03,7.1-18.67,4.48,1.7-11.92,31.35-4.66-1.77Z"/><path class="cls-1" d="M182.41,355.79l-.57,2.96-4.85-.69,.52-2.68c.51-2.64-.25-4-2.09-4.36-1.84-.35-3.05,.63-3.47,2.8l-3.46,17.98c-.42,2.17,.34,3.53,2.18,3.88s3.05-.63,3.56-3.27l.71-3.67,4.75,1.16-.76,3.95c-.96,4.99-4.39,7.35-9.29,6.41-4.85-.93-7.11-4.4-6.15-9.38l3.48-18.07c.96-4.99,4.35-7.36,9.19-6.43,4.89,.94,7.2,4.41,6.24,9.4Z"/><path class="cls-1" d="M198.23,354.12l-.29,9.48,7.42,.23-.14,4.69-7.42-.23-.3,9.96,9.2,.28-.14,4.69-14.27-.44,1.03-33.53,14.27,.44-.14,4.69-9.2-.28Z"/><path class="cls-1" d="M247.36,351.1l.28,1.21c.72,3.18,.41,6.15-1.57,11.9l-3.51,10.08,9.58-2.18,1.06,4.67-15.23,3.46-.96-4.21,4.65-13.49c1.45-4.21,1.58-6.65,.98-9.31l-.15-.65c-.49-2.15-1.68-3.06-3.5-2.64-1.82,.41-2.5,1.75-1.88,4.5l.37,1.63-4.82,.85-.51-2.24c-1.09-4.81,1.12-8.26,5.88-9.35,4.77-1.08,8.24,1.03,9.32,5.75Z"/><path class="cls-1" d="M272.34,342.67l6.66,16.22c2,4.88,.34,9.03-4.36,10.96-4.7,1.93-8.8,.14-10.8-4.74l-6.66-16.22c-2-4.88-.34-9.03,4.36-10.96s8.8-.14,10.8,4.74Zm-10.44,4.34l6.62,16.13c.95,2.31,2.47,3.13,4.34,2.36,1.86-.76,2.37-2.42,1.43-4.73l-6.62-16.13c-.95-2.3-2.47-3.13-4.34-2.36-1.86,.76-2.37,2.42-1.43,4.73Z"/><path class="cls-1" d="M293.93,329.24l.66,1.06c1.72,2.77,2.39,5.67,2.4,11.76l-.03,10.68,8.35-5.18,2.53,4.07-13.27,8.24-2.27-3.66v-14.27c0-4.45-.67-6.8-2.11-9.12l-.35-.57c-1.16-1.87-2.58-2.34-4.17-1.36-1.59,.99-1.79,2.47-.3,4.87l.88,1.42-4.28,2.37-1.21-1.95c-2.6-4.19-1.64-8.18,2.52-10.75,4.15-2.58,8.13-1.72,10.68,2.4Z"/><path class="cls-1" d="M313.03,313.72l.81,.94c2.13,2.47,3.25,5.24,4.19,11.25l1.63,10.55,7.44-6.41,3.13,3.63-11.83,10.2-2.82-3.27-2.21-14.1c-.69-4.4-1.72-6.62-3.5-8.69l-.44-.51c-1.44-1.67-2.92-1.92-4.33-.7s-1.39,2.72,.45,4.86l1.09,1.27-3.86,3.01-1.5-1.74c-3.22-3.74-2.88-7.83,.82-11.02,3.7-3.19,7.76-2.96,10.92,.71Z"/></g><g><path class="cls-1" d="M75.04,99.29l16.61,11.37c4.99,3.42,6.01,8.45,2.72,13.26-3.29,4.81-8.35,5.68-13.34,2.26l-16.61-11.37c-4.99-3.42-6.01-8.45-2.72-13.26,3.29-4.81,8.35-5.68,13.34-2.26Zm-7.29,10.74l16.52,11.31c2.36,1.62,4.35,1.44,5.65-.46,1.3-1.91,.75-3.82-1.61-5.44l-16.52-11.31c-2.36-1.62-4.34-1.44-5.65,.46s-.75,3.82,1.61,5.44Z"/><path class="cls-1" d="M86.31,81.15l7.66,7.74,5.86-5.8,3.79,3.83-5.86,5.8,11.84,11.96-4.14,4.1-27.08-27.37,11.45-11.33,3.79,3.83-7.31,7.23Z"/><path class="cls-1" d="M108.99,62.11l6.18,8.97,6.79-4.68,3.06,4.44-6.79,4.68,9.55,13.86-4.8,3.31-21.85-31.7,13.27-9.15,3.06,4.44-8.47,5.84Z"/><path class="cls-1" d="M159.3,55.87l-2.57,.81,4.86,15.54-5.56,1.74-11.5-36.74,8.03-2.51c5.98-1.87,10.26,.36,12.15,6.4l.82,2.62c1.22,3.88,.71,7.04-1.41,9.32l10.33,15.15-5.88,1.84-9.27-14.16Zm-4.18-4.34l2.26-.71c2.68-.84,3.44-2.63,2.47-5.73l-.59-1.89c-.97-3.1-2.62-4.14-5.3-3.3l-2.26,.71,3.42,10.92Z"/><path class="cls-1" d="M197.36,35.77l2.03,20.03c.61,6.02-2.58,10.05-8.38,10.63s-9.73-2.72-10.34-8.74l-2.03-20.03c-.61-6.02,2.58-10.05,8.38-10.63,5.8-.59,9.73,2.72,10.34,8.74Zm-12.91,1.36l2.02,19.92c.29,2.85,1.7,4.25,4,4.02,2.3-.23,3.4-1.89,3.11-4.74l-2.02-19.92c-.29-2.85-1.7-4.25-4-4.02-2.3,.23-3.4,1.89-3.11,4.74Z"/><path class="cls-1" d="M222.3,66.28l-.4-8.83-6.4-.63-2.12,8.58-5.8-.57,10.39-37.66,7.39,.73,2.85,38.96-5.91-.58Zm-5.52-14.64l4.87,.48-.76-16.38-.16-.02-3.94,15.91Z"/><path class="cls-1" d="M255.19,34.24c5.99,1.85,8.24,6.11,6.38,12.16l-5.61,18.18c-1.87,6.04-6.13,8.3-12.12,6.45l-7.99-2.47,11.35-36.79,7.99,2.47Zm-12.18,30.89l2.21,.68c2.68,.83,4.33-.22,5.28-3.32l5.38-17.45c.96-3.1,.19-4.89-2.49-5.72l-2.21-.68-8.17,26.49Z"/><path class="cls-1" d="M306.14,70.28l-1.99,2.84-4.75-2.99,1.8-2.57c1.76-2.52,1.61-4.31-.15-5.54-1.76-1.23-3.49-.77-4.94,1.31l-12.04,17.21c-1.45,2.07-1.29,3.86,.47,5.09,1.76,1.23,3.49,.77,5.26-1.76l2.46-3.51,4.44,3.44-2.65,3.79c-3.34,4.78-8.04,5.65-12.73,2.37-4.64-3.25-5.39-7.93-2.05-12.71l12.11-17.3c3.34-4.78,8-5.68,12.64-2.43,4.69,3.28,5.48,8,2.14,12.77Z"/><path class="cls-1" d="M304.37,109.59l5.43-6.97-4.46-4.64-7.18,5.15-4.04-4.2,32.37-21.87,5.14,5.35-23.15,31.47-4.11-4.28Zm5.31-14.71l3.39,3.53,10.06-12.95-.11-.12-13.34,9.53Z"/><path class="cls-1" d="M344.1,107.09l-9.12,5.96,4.51,6.91-4.51,2.95-4.51-6.91-14.09,9.2-3.19-4.88,32.24-21.05,8.81,13.49-4.51,2.95-5.62-8.61Z"/><path class="cls-1" d="M358.24,133.25l-10.05,4.2,3.29,7.87-4.97,2.08-3.29-7.87-10.56,4.41,4.07,9.74-4.97,2.08-6.32-15.12,35.53-14.85,6.32,15.12-4.97,2.08-4.07-9.74Z"/></g><path class="cls-2" d="M204.61,334.92c-34.81,0-67.53-13.55-92.14-38.17-24.61-24.61-38.17-57.33-38.17-92.14s13.55-67.53,38.17-92.14c24.61-24.61,57.33-38.17,92.14-38.17s67.53,13.55,92.14,38.17c24.61,24.61,38.17,57.33,38.17,92.14s-13.55,67.53-38.17,92.14c-24.61,24.61-57.33,38.17-92.14,38.17Z"/><path class="cls-4" d="M285.1,203.04c-5.81,0-11.31,1.35-16.2,3.75l-8.46-10.72c7.14-4.58,15.58-6.16,15.58-6.16l16.43-.15c1.82-.02,3.29-1.5,3.29-3.32v-22.94c0-30.22-24.26-41.78-24.26-41.78l-15.46,18.22s4.44,7.11,4.44,11.56-5.33,6.67-5.33,6.67c0,0-9.62-9.31-14.5-6.31l-2.17,4.08c-2.42,1.5-4.22-.44-11.33-.12-7.11,.32,.89,9.45-20,9.45-24.44,0-49.56-20.44-52.22-13.78-2.67,6.67,5,10.66,5,10.66h-26.55l-26.9,.19c-2.57,.02-4.65,2.11-4.65,4.69v5.83c0,2.07,1.36,3.9,3.34,4.49,7.32,2.19,25.41,7.89,41.78,15.47l1.28,2.06-7.97,9.96c-4.95-2.41-10.51-3.75-16.38-3.7-20.36,.15-36.74,16.78-36.59,37.14,.15,20.36,16.78,36.74,37.14,36.59,20.36-.15,36.74-16.78,36.59-37.14-.04-4.69-.95-9.17-2.58-13.28l5.72-4,18.1,29.06c1.11,1.79,3.07,2.88,5.18,2.88h37.9c1.76,0,3.42-.75,4.58-2.07,4.72-5.37,16.95-20.23,20.06-33.16l3.66,3.55c-3.41,5.59-5.38,12.16-5.38,19.19,0,20.36,16.51,36.87,36.87,36.87s36.87-16.51,36.87-36.87-16.51-36.87-36.87-36.87Zm-160.83,53.6c-10.28,.08-18.67-8.19-18.75-18.47-.08-10.28,8.19-18.67,18.47-18.75,1.45-.01,2.86,.16,4.22,.47l-10.67,13.33c-1.6,1.99-.47,5.96,2.39,9.01,2.86,3.05,6.75,4.43,8.84,2.97l13.79-9.64c.1,.77,.17,1.54,.18,2.33,.08,10.28-8.19,18.67-18.47,18.75Zm139.82-106.73c-.75-7.23-4.62-8.62-4.62-8.62l13.43-15.11c19.12,10.67,19.12,34.22,19.12,34.22h-34.16s6.97-3.26,6.22-10.49Zm21.01,108.61c-10.28,0-18.61-8.33-18.61-18.61,0-2.03,.34-3.99,.94-5.82l11.38,11.01c2.57,2.48,7.06,2.12,10.16-.69,3.11-2.81,3.92-7.24,1.71-10.04l-9.9-12.55c1.39-.33,2.84-.53,4.33-.53,10.28,0,18.61,8.33,18.61,18.61s-8.33,18.61-18.61,18.61Z"/></g></g></svg>