<svg xmlns="http://www.w3.org/2000/svg" viewBox="0 0 405.22 405.22"><defs><style>.cls-1{fill:#fff;}</style></defs><g id="レイヤー_2" data-name="レイヤー 2"><g id="logo"><path class="cls-1" d="M202.61,4C312.3,4,401.22,92.92,401.22,202.61S312.3,401.22,202.61,401.22,4,312.3,4,202.61,92.92,4,202.61,4m0,328.92a130.3,130.3,0,1,0-92.14-38.17,129.45,129.45,0,0,0,92.14,38.17M202.61,0a202.66,202.66,0,0,0-78.86,389.3A202.66,202.66,0,0,0,281.48,15.92,201.47,201.47,0,0,0,202.61,0Zm0,328.92a126.33,126.33,0,1,1,89.31-37,125.47,125.47,0,0,1-89.31,37Z"/><path class="cls-1" d="M115.21,328.56l-.57.77-4.21-2.54.63-.84c1.37-1.85,1.31-3.21-.11-4.26-1.19-.89-2.53-.87-3.67.67l-.43.58c-1.11,1.5-1.26,3.3-.4,7.7,1.12,6,.72,9.13-1.59,12.25l-1,1.31c-3,4-7,4.17-10.72,1.4s-4.68-6.88-1.73-10.84L92.75,333,97,335.52l-1.37,1.85c-1.34,1.81-1.16,3.32.31,4.41,1.23.91,2.71,1,4.14-.92l.63-.85c1.26-1.69,1.4-3.49.55-7.89-1.13-6-.73-9.13,1.44-12.06l.49-.65c2.94-4,6.79-4.32,10.56-1.52S118.16,324.6,115.21,328.56Z"/><path class="cls-1" d="M110.93,356.7l16.36-29.27,4.44,2.47-16.37,29.28Z"/><path class="cls-1" d="M140.22,370.31l1.68-23.15-.09,0-7.9,20.78-4.48-1.71,11.92-31.35,5.28,2-1.5,20.81.09,0,7.1-18.67,4.48,1.7-11.92,31.35Z"/><path class="cls-1" d="M180.41,353.79l-.57,3-4.85-.68.52-2.69c.51-2.63-.26-4-2.09-4.35s-3,.63-3.47,2.79l-3.46,18c-.42,2.17.34,3.53,2.18,3.89s3.05-.64,3.56-3.27l.7-3.67,4.76,1.16-.76,3.95c-1,5-4.4,7.35-9.29,6.41s-7.11-4.39-6.15-9.38L165,350.82c1-5,4.35-7.36,9.2-6.43S181.37,348.8,180.41,353.79Z"/><path class="cls-1" d="M196.23,352.12l-.29,9.48,7.43.23-.15,4.69-7.42-.23-.3,10,9.19.28-.14,4.69-14.28-.43,1-33.53,14.27.43-.14,4.7Z"/><path class="cls-1" d="M245.36,349.1l.28,1.21c.72,3.18.41,6.15-1.57,11.91l-3.51,10.08,9.58-2.18,1.06,4.68L236,378.26l-.95-4.21,4.65-13.49c1.45-4.21,1.58-6.64,1-9.31l-.14-.65c-.49-2.15-1.68-3.06-3.5-2.65s-2.51,1.75-1.88,4.51l.37,1.63-4.82.85-.51-2.24c-1.09-4.81,1.12-8.26,5.89-9.35S244.29,344.38,245.36,349.1Z"/><path class="cls-1" d="M270.34,340.67,277,356.9c2,4.87.34,9-4.36,11s-8.79.14-10.79-4.73l-6.66-16.22c-2-4.88-.34-9,4.36-11S268.34,335.8,270.34,340.67ZM259.89,345l6.63,16.14c.94,2.3,2.47,3.12,4.33,2.36s2.37-2.42,1.43-4.73l-6.62-16.13c-1-2.31-2.48-3.13-4.34-2.37S259,342.71,259.89,345Z"/><path class="cls-1" d="M291.93,327.24l.66,1.06c1.71,2.77,2.39,5.68,2.39,11.76l0,10.68,8.35-5.18,2.53,4.07-13.27,8.24-2.28-3.66V339.94c0-4.46-.67-6.8-2.11-9.12l-.35-.57c-1.17-1.88-2.59-2.35-4.18-1.36s-1.79,2.46-.3,4.87l.88,1.42L280,337.56l-1.22-2c-2.6-4.19-1.63-8.18,2.52-10.75S289.38,323.13,291.93,327.24Z"/><path class="cls-1" d="M311,311.72l.81.95c2.13,2.46,3.25,5.23,4.2,11.25l1.62,10.55,7.45-6.41,3.12,3.63L316.4,341.88l-2.82-3.26-2.21-14.1c-.69-4.4-1.72-6.62-3.5-8.68l-.44-.51c-1.44-1.67-2.91-1.92-4.33-.7s-1.39,2.72.46,4.86l1.09,1.27-3.86,3-1.5-1.74c-3.22-3.74-2.88-7.83.82-11S307.87,308.06,311,311.72Z"/><path class="cls-1" d="M73,97.29l16.61,11.37c5,3.42,6,8.45,2.72,13.26S84,127.6,79,124.18L62.42,112.81c-5-3.41-6-8.45-2.72-13.26S68.05,93.88,73,97.29ZM65.76,108l16.51,11.31c2.36,1.62,4.35,1.44,5.65-.46s.75-3.82-1.61-5.44L69.8,102.13c-2.36-1.61-4.35-1.44-5.65.47S63.4,106.42,65.76,108Z"/><path class="cls-1" d="M84.31,79.15,92,86.89l5.86-5.81,3.79,3.83-5.86,5.81,11.84,12-4.15,4.1L76.38,79.41,87.83,68.08l3.79,3.83Z"/><path class="cls-1" d="M107,60.11l6.18,9L120,64.4,123,68.84l-6.79,4.68,9.55,13.86L121,90.69,99.13,59l13.27-9.14,3.06,4.43Z"/><path class="cls-1" d="M157.3,53.87l-2.58.8,4.87,15.54L154,72l-11.5-36.74,8-2.52c6-1.87,10.26.37,12.15,6.4l.82,2.63c1.22,3.88.71,7-1.41,9.31l10.34,15.15L166.57,68Zm-4.19-4.34,2.26-.71c2.68-.84,3.44-2.63,2.47-5.73l-.59-1.89c-1-3.1-2.62-4.14-5.3-3.3l-2.26.71Z"/><path class="cls-1" d="M195.36,33.77l2,20c.61,6-2.58,10.05-8.38,10.64s-9.72-2.72-10.33-8.74l-2-20c-.61-6,2.58-10,8.38-10.63S194.75,27.75,195.36,33.77Zm-12.9,1.36,2,19.92c.29,2.84,1.7,4.25,4,4s3.4-1.89,3.11-4.73l-2-19.92c-.29-2.85-1.7-4.25-4-4S182.17,32.28,182.46,35.13Z"/><path class="cls-1" d="M220.3,64.28l-.4-8.83-6.4-.63-2.12,8.58-5.8-.57L216,25.17l7.39.73,2.85,39Zm-5.52-14.64,4.87.48-.76-16.38h-.17Z"/><path class="cls-1" d="M253.19,32.24c6,1.85,8.25,6.11,6.38,12.16L254,62.58c-1.87,6-6.13,8.3-12.12,6.45l-8-2.47,11.36-36.79ZM241,63.13l2.21.68c2.68.83,4.33-.22,5.28-3.32l5.39-17.44c1-3.11.18-4.9-2.5-5.72l-2.2-.69Z"/><path class="cls-1" d="M304.14,68.28l-2,2.84-4.75-3,1.8-2.57c1.76-2.52,1.6-4.31-.15-5.54s-3.5-.76-4.95,1.31l-12,17.21c-1.45,2.08-1.29,3.86.47,5.09s3.49.77,5.25-1.75l2.46-3.52,4.44,3.44L292,85.59c-3.34,4.77-8,5.64-12.73,2.36s-5.39-7.93-2.05-12.7l12.11-17.31c3.34-4.77,8-5.67,12.64-2.43S307.48,63.51,304.14,68.28Z"/><path class="cls-1" d="M302.37,107.59l5.43-7L303.34,96l-7.18,5.14-4-4.2,32.37-21.87,5.15,5.35-23.15,31.47Zm5.31-14.71,3.39,3.52,10.07-12.94-.12-.12Z"/><path class="cls-1" d="M342.1,105.09,333,111l4.51,6.91-4.51,3L328.47,114l-14.09,9.2-3.19-4.88,32.23-21,8.81,13.49-4.51,3Z"/><path class="cls-1" d="M356.24,131.25l-10,4.2,3.28,7.86-5,2.08-3.29-7.86-10.55,4.41,4.07,9.74-5,2.08-6.33-15.12L359,123.79l6.32,15.12-5,2.08Z"/><path class="cls-1" d="M269.48,119.73a46.72,46.72,0,0,1,24.25,41.78v22.93a3.32,3.32,0,0,1-3.28,3.32l-16.43.15a49.56,49.56,0,0,0-15.59,6.15l8.47,10.72a36.86,36.86,0,1,1-15.29,13.94L248,215.17c-3.12,12.93-15.35,27.79-20.06,33.16a6.1,6.1,0,0,1-4.59,2.07H185.41a6.1,6.1,0,0,1-5.18-2.88l-18.1-29.06-5.72,4a36.88,36.88,0,0,1-34,50.43h-.28a36.87,36.87,0,0,1-.27-73.73h.28a36.68,36.68,0,0,1,16.1,3.7l8-10-1.28-2.06a337.53,337.53,0,0,0-41.78-15.47,4.67,4.67,0,0,1-3.34-4.49v-5.83a4.67,4.67,0,0,1,4.65-4.68l26.9-.2H157.9s-7.66-4-5-10.66a2.26,2.26,0,0,1,2.38-1.34c7.31,0,28.82,15.12,49.84,15.12s12.89-9.13,20-9.46c.56,0,1.09,0,1.59,0,4,0,6.07.74,7.69.74a3.66,3.66,0,0,0,2.05-.58l2.17-4.08a4.24,4.24,0,0,1,2.27-.6c5.1,0,12.23,6.9,12.23,6.9s5.33-2.22,5.33-6.66S254,138,254,138l15.46-18.22M255.86,158.4H290s0-23.56-19.12-34.23l-13.43,15.12s3.87,1.38,4.61,8.61-6.22,10.5-6.22,10.5M122.12,254.64h.15a18.61,18.61,0,0,0,18.47-18.75,20,20,0,0,0-.18-2.34l-13.79,9.65a3.5,3.5,0,0,1-2,.58c-2.08,0-4.7-1.33-6.79-3.56-2.86-3.05-4-7-2.39-9l10.67-13.33a18.38,18.38,0,0,0-4.09-.47H122a18.62,18.62,0,0,0,.13,37.23m159-9.89a6.14,6.14,0,0,1-4.34-1.66l-11.37-11a18.44,18.44,0,0,0-.95,5.82,18.71,18.71,0,1,0,14.29-18.08l9.9,12.54c2.22,2.81,1.4,7.24-1.71,10a8.77,8.77,0,0,1-5.82,2.35M268.42,114.8l-2,2.34L251,135.36l-1.89,2.23,1.55,2.48c1.59,2.56,3.83,7.18,3.83,9.44a2.52,2.52,0,0,1-.94,1.67c-3-2.44-8-5.91-12.62-5.91a8.24,8.24,0,0,0-4.37,1.19l-.92.57-.51,1-1.32,2.48-.92-.14a36.62,36.62,0,0,0-6.14-.54c-.57,0-1.17,0-1.77.05-5.07.23-6.57,3.58-7.37,5.38s-1.81,4.07-12.45,4.07c-12.37,0-25.43-5.82-35-10.07-6.57-2.93-11.32-5.05-14.88-5.05a6.19,6.19,0,0,0-6.1,3.85,10.76,10.76,0,0,0-.13,8.15H131.35l-26.93.2a8.7,8.7,0,0,0-8.62,8.68v5.83A8.62,8.62,0,0,0,102,179.2a342.45,342.45,0,0,1,38.75,14.13L137,198a40.37,40.37,0,0,0-14.9-2.81h-.31a40.87,40.87,0,0,0,.3,81.73h.31a40.9,40.9,0,0,0,39-51.91l15.35,24.66a10,10,0,0,0,8.58,4.76H223.3a10.09,10.09,0,0,0,7.59-3.43,142.63,142.63,0,0,0,11.38-14.81c0,.58,0,1.16,0,1.74a40.83,40.83,0,1,0,25.89-38l-3.62-4.58a49.5,49.5,0,0,1,9.94-3.39l16-.14a7.34,7.34,0,0,0,7.25-7.32V161.51c0-32.38-25.45-44.87-26.53-45.39l-2.78-1.32ZM263.08,139l8.56-9.63c10.19,7.2,13.16,18.92,14,25H265a13.56,13.56,0,0,0,1-6.91,17,17,0,0,0-3-8.5Zm-141,111.65a14.65,14.65,0,0,1-14.6-14.51,14.62,14.62,0,0,1,10.2-14l-5.3,6.62c-2.88,3.59-1.78,9.58,2.59,14.25,2.84,3,6.46,4.82,9.71,4.82a7.52,7.52,0,0,0,4.35-1.31l6.41-4.48a15,15,0,0,1-2.94,4.29,14.53,14.53,0,0,1-10.3,4.36Zm159-1.89a12.9,12.9,0,0,0,8.51-3.38c4.71-4.26,5.66-11.06,2.16-15.48L287,223.83a14.61,14.61,0,1,1-18.23,17.08L274,246a10.17,10.17,0,0,0,7.12,2.78Z"/></g></g></svg>