<svg xmlns="http://www.w3.org/2000/svg" viewBox="0 0 405.27 405.33"><defs><style>.cls-1{opacity:0.3;}.cls-2{fill:#fff;}</style></defs><g id="レイヤー_2" data-name="レイヤー 2"><g id="レイヤー_1-2" data-name="レイヤー 1"><g id="レイヤー_2-2" data-name="レイヤー 2" class="cls-1"><g id="logo"><path class="cls-2" d="M202.55,4C312.24,4,401.16,92.92,401.16,202.61S312.24,401.22,202.55,401.22,3.94,312.3,3.94,202.61,92.86,4,202.55,4m0,328.92a130.3,130.3,0,1,0-92.14-38.17,130.3,130.3,0,0,0,92.14,38.17M202.55,0C90.62.06-.06,90.85,0,202.77A202.67,202.67,0,0,0,123.69,389.3c103.1,43.56,222-4.72,265.55-107.82s-4.72-222-107.82-265.56A201.41,201.41,0,0,0,202.55,0Zm0,328.92a126.33,126.33,0,1,1,89.31-37,126.33,126.33,0,0,1-89.31,37Z"/><path class="cls-2" d="M115.15,328.56l-.57.77-4.21-2.54L111,326c1.37-1.85,1.31-3.21-.11-4.26-1.19-.89-2.53-.87-3.67.67l-.43.58c-1.11,1.5-1.26,3.3-.4,7.7,1.12,6,.72,9.13-1.59,12.25l-1,1.31c-3,4-7,4.17-10.72,1.4s-4.68-6.88-1.73-10.84L92.69,333l4.25,2.52-1.37,1.85c-1.34,1.81-1.16,3.32.31,4.41,1.23.91,2.71,1,4.14-.92l.63-.85c1.26-1.69,1.4-3.49.55-7.89-1.13-6-.73-9.13,1.44-12.06l.49-.65c2.94-4,6.79-4.32,10.56-1.52S118.1,324.6,115.15,328.56Z"/><path class="cls-2" d="M110.87,356.7l16.36-29.27,4.44,2.47L115.3,359.18Z"/><path class="cls-2" d="M140.16,370.31l1.68-23.15h-.09l-7.9,20.78-4.48-1.71,11.92-31.35,5.28,2-1.5,20.81h.09l7.1-18.67,4.48,1.7-11.92,31.35Z"/><path class="cls-2" d="M180.35,353.79l-.57,3-4.85-.68.52-2.69c.51-2.63-.26-4-2.09-4.35s-3,.63-3.47,2.79l-3.46,18c-.42,2.17.34,3.53,2.18,3.89s3-.64,3.56-3.27l.7-3.67,4.76,1.16-.76,3.95c-1,5-4.4,7.35-9.29,6.41s-7.11-4.39-6.15-9.38l3.51-18.13c1-5,4.35-7.36,9.2-6.43S181.31,348.8,180.35,353.79Z"/><path class="cls-2" d="M196.17,352.12l-.29,9.48,7.43.23-.15,4.69-7.42-.23-.3,10,9.19.28-.14,4.69-14.28-.43,1-33.53,14.27.43-.14,4.7Z"/><path class="cls-2" d="M245.3,349.1l.28,1.21c.72,3.18.41,6.15-1.57,11.91L240.5,372.3l9.58-2.18,1.06,4.68-15.2,3.46-.95-4.21,4.65-13.49c1.45-4.21,1.58-6.64,1-9.31l-.14-.65c-.49-2.15-1.68-3.06-3.5-2.65s-2.51,1.75-1.88,4.51l.37,1.63-4.82.85-.51-2.24c-1.09-4.81,1.12-8.26,5.89-9.35S244.23,344.38,245.3,349.1Z"/><path class="cls-2" d="M270.28,340.67l6.66,16.23c2,4.87.34,9-4.36,11s-8.79.14-10.79-4.73L255.13,347c-2-4.88-.34-9,4.36-11S268.28,335.8,270.28,340.67ZM259.83,345l6.63,16.14c.94,2.3,2.47,3.12,4.33,2.36s2.37-2.42,1.43-4.73l-6.62-16.13c-1-2.31-2.48-3.13-4.34-2.37S258.94,342.71,259.83,345Z"/><path class="cls-2" d="M291.87,327.24l.66,1.06c1.71,2.77,2.39,5.68,2.39,11.76v10.68l8.35-5.18,2.53,4.07-13.27,8.24-2.28-3.66V339.94c0-4.46-.67-6.8-2.11-9.12l-.35-.57c-1.17-1.88-2.59-2.35-4.18-1.36s-1.79,2.46-.3,4.87l.88,1.42-4.25,2.38-1.22-2c-2.6-4.19-1.63-8.18,2.52-10.75S289.32,323.13,291.87,327.24Z"/><path class="cls-2" d="M310.94,311.72l.81.95c2.13,2.46,3.25,5.23,4.2,11.25l1.62,10.55,7.45-6.41,3.12,3.63-11.8,10.19-2.82-3.26-2.21-14.1c-.69-4.4-1.72-6.62-3.5-8.68l-.44-.51c-1.44-1.67-2.91-1.92-4.33-.7s-1.39,2.72.46,4.86l1.09,1.27-3.86,3-1.5-1.74c-3.22-3.74-2.88-7.83.82-11S307.81,308.06,310.94,311.72Z"/><path class="cls-2" d="M72.94,97.29l16.61,11.37c5,3.42,6,8.45,2.72,13.26s-8.33,5.68-13.33,2.26L62.36,112.81c-5-3.41-6-8.45-2.72-13.26S68,93.88,72.94,97.29ZM65.7,108l16.51,11.31c2.36,1.62,4.35,1.44,5.65-.46s.75-3.82-1.61-5.44L69.74,102.13c-2.36-1.61-4.35-1.44-5.65.47S63.34,106.42,65.7,108Z"/><path class="cls-2" d="M84.25,79.15l7.69,7.74,5.86-5.81,3.79,3.83-5.86,5.81,11.84,12-4.15,4.1L76.32,79.41,87.77,68.08l3.79,3.83Z"/><path class="cls-2" d="M106.94,60.11l6.18,9,6.82-4.71,3,4.44-6.79,4.68,9.55,13.86-4.76,3.31L99.07,59l13.27-9.14,3.06,4.43Z"/><path class="cls-2" d="M157.24,53.87l-2.58.8,4.87,15.54L153.94,72l-11.5-36.74,8-2.52c6-1.87,10.26.37,12.15,6.4l.82,2.63c1.22,3.88.71,7-1.41,9.31l10.34,15.15L166.51,68Zm-4.19-4.34,2.26-.71c2.68-.84,3.44-2.63,2.47-5.73l-.59-1.89c-1-3.1-2.62-4.14-5.3-3.3l-2.26.71Z"/><path class="cls-2" d="M195.3,33.77l2,20c.61,6-2.58,10-8.38,10.64s-9.72-2.72-10.33-8.74l-2-20c-.61-6,2.58-10,8.38-10.63S194.69,27.75,195.3,33.77Zm-12.9,1.36,2,19.92c.29,2.84,1.7,4.25,4,4s3.4-1.89,3.11-4.73l-2-19.92c-.29-2.85-1.7-4.25-4-4S182.11,32.28,182.4,35.13Z"/><path class="cls-2" d="M220.24,64.28l-.4-8.83-6.4-.63-2.12,8.58-5.8-.57,10.42-37.66,7.39.73,2.85,39Zm-5.52-14.64,4.87.48-.76-16.38h-.17Z"/><path class="cls-2" d="M253.13,32.24c6,1.85,8.25,6.11,6.38,12.16l-5.57,18.18c-1.87,6-6.13,8.3-12.12,6.45l-8-2.47,11.36-36.79ZM240.94,63.13l2.21.68c2.68.83,4.33-.22,5.28-3.32l5.39-17.44c1-3.11.18-4.9-2.5-5.72l-2.2-.69Z"/><path class="cls-2" d="M304.08,68.28l-2,2.84-4.75-3,1.8-2.57c1.76-2.52,1.6-4.31-.15-5.54s-3.5-.76-5,1.31L282,78.53c-1.45,2.08-1.29,3.86.47,5.09s3.49.77,5.25-1.75l2.46-3.52,4.44,3.44-2.71,3.8c-3.34,4.77-8,5.64-12.73,2.36s-5.39-7.93-2-12.7l12.11-17.31c3.34-4.77,8-5.67,12.64-2.43S307.42,63.51,304.08,68.28Z"/><path class="cls-2" d="M302.31,107.59l5.43-7L303.28,96l-7.18,5.14-4-4.2,32.37-21.87,5.15,5.35-23.15,31.47Zm5.31-14.71L311,96.4l10.07-12.94-.12-.12Z"/><path class="cls-2" d="M342,105.09l-9.1,5.91,4.51,6.91-4.51,3L328.41,114l-14.09,9.2-3.19-4.88,32.23-21,8.81,13.49-4.51,3Z"/><path class="cls-2" d="M356.18,131.25l-10,4.2,3.28,7.86-5,2.08-3.29-7.86-10.55,4.41,4.07,9.74-5,2.08-6.33-15.12,35.58-14.85,6.32,15.12-5,2.08Z"/><path class="cls-2" d="M269.42,119.73a46.73,46.73,0,0,1,24.25,41.78v22.93a3.32,3.32,0,0,1-3.28,3.32l-16.43.15a49.54,49.54,0,0,0-15.59,6.15l8.47,10.72a36.87,36.87,0,1,1-15.29,13.94l-3.61-3.55c-3.12,12.93-15.35,27.79-20.06,33.16a6.12,6.12,0,0,1-4.59,2.07H185.35a6.1,6.1,0,0,1-5.18-2.88l-18.1-29.06-5.72,4a36.88,36.88,0,0,1-34,50.43h-.28a36.87,36.87,0,0,1-.27-73.73h.28a36.67,36.67,0,0,1,16.1,3.7l8-10-1.28-2.06a337.65,337.65,0,0,0-41.78-15.47,4.66,4.66,0,0,1-3.34-4.49V165a4.67,4.67,0,0,1,4.65-4.68l26.9-.2h26.51s-7.66-4-5-10.66a2.25,2.25,0,0,1,2.38-1.34c7.31,0,28.82,15.12,49.84,15.12s12.89-9.13,20-9.46h1.59c4,0,6.07.74,7.69.74a3.72,3.72,0,0,0,2-.58l2.17-4.08a4.2,4.2,0,0,1,2.27-.6c5.1,0,12.23,6.9,12.23,6.9s5.33-2.22,5.33-6.66S253.94,138,253.94,138l15.46-18.22M255.8,158.4h34.14s0-23.56-19.12-34.23l-13.43,15.12s3.87,1.38,4.61,8.61-6.22,10.5-6.22,10.5M122.06,254.64h.15a18.61,18.61,0,0,0,18.47-18.75h0a23,23,0,0,0-.18-2.34l-13.79,9.65a3.54,3.54,0,0,1-2,.58c-2.08,0-4.7-1.33-6.79-3.56-2.86-3.05-4-7-2.39-9l10.67-13.33a18.2,18.2,0,0,0-4.09-.47h-.17a18.62,18.62,0,0,0,.13,37.23m159-9.89a6.12,6.12,0,0,1-4.34-1.66l-11.37-11a18.29,18.29,0,0,0-.95,5.82,18.71,18.71,0,1,0,14.29-18.08l9.9,12.54c2.22,2.81,1.4,7.24-1.71,10a8.82,8.82,0,0,1-5.82,2.35M268.36,114.8l-2,2.34-15.42,18.22-1.89,2.23,1.55,2.48c1.59,2.56,3.83,7.18,3.83,9.44a2.51,2.51,0,0,1-.94,1.67c-3-2.44-8-5.91-12.62-5.91a8.19,8.19,0,0,0-4.37,1.19l-.92.57-.51,1-1.32,2.48-.92-.14a37.17,37.17,0,0,0-6.14-.54c-.57,0-1.17,0-1.77,0-5.07.23-6.57,3.58-7.37,5.38s-1.81,4.07-12.45,4.07c-12.37,0-25.43-5.82-35-10.07-6.57-2.93-11.32-5-14.88-5a6.18,6.18,0,0,0-6.1,3.85,10.75,10.75,0,0,0-.13,8.15h-17.7l-26.93.2a8.69,8.69,0,0,0-8.62,8.68v5.83a8.63,8.63,0,0,0,6.2,8.28,343.68,343.68,0,0,1,38.75,14.13L136.94,198a40.43,40.43,0,0,0-14.9-2.81h-.31a40.87,40.87,0,0,0,.3,81.73h.31a40.9,40.9,0,0,0,40.51-41.29A41.45,41.45,0,0,0,161.34,225l15.35,24.66a10,10,0,0,0,8.58,4.76h38a10.12,10.12,0,0,0,7.59-3.43,143.33,143.33,0,0,0,11.38-14.81v1.74a40.83,40.83,0,1,0,25.89-38l-3.62-4.58a49,49,0,0,1,9.94-3.39l16-.14a7.34,7.34,0,0,0,7.25-7.32v-23c0-32.38-25.45-44.87-26.53-45.39ZM263,139l8.56-9.63c10.19,7.2,13.16,18.92,14,25H264.94a13.63,13.63,0,0,0,1-6.91,17.09,17.09,0,0,0-3-8.5ZM122,250.65a14.59,14.59,0,0,1-4.4-28.51l-5.3,6.62c-2.88,3.59-1.78,9.58,2.59,14.25,2.84,3,6.46,4.82,9.71,4.82a7.5,7.5,0,0,0,4.35-1.31l6.41-4.48a15,15,0,0,1-2.94,4.29,14.53,14.53,0,0,1-10.3,4.36Zm159-1.89a12.92,12.92,0,0,0,8.51-3.38c4.71-4.26,5.66-11.06,2.16-15.48l-4.75-6.07a14.61,14.61,0,1,1-18.23,17.08l5.23,5.09a10.16,10.16,0,0,0,7.12,2.78Z"/></g></g></g></g></svg>